<?xml version="1.0"?>
<svg xmlns="http://www.w3.org/2000/svg" xmlns:xlink="http://www.w3.org/1999/xlink" xmlns:svgjs="http://svgjs.com/svgjs" version="1.1" width="512" height="512" x="0" y="0" viewBox="0 0 511.815 511.815" style="enable-background:new 0 0 512 512" xml:space="preserve" class=""><g><g xmlns="http://www.w3.org/2000/svg"><path d="m432.636 332.564c51.468-20.397 79.586-48.811 79.174-80.006-.412-31.193-29.27-58.859-81.256-77.902-6.824-2.5-13.971-4.822-21.388-6.973 8.763-35.786 10.654-67.453 4.601-91.21-4.689-18.409-13.84-31.747-27.198-39.644-26.893-15.896-65.62-5.83-109.047 28.347-5.716 4.499-11.449 9.365-17.176 14.551-5.458-5.464-10.937-10.61-16.419-15.388-41.651-36.302-79.824-48.291-107.483-33.756-4.135 2.173-7.943 4.923-11.412 8.19-18.557-2.455-37.694 6.037-47.848 23.053-6.581 11.027-8.46 23.95-5.292 36.388 3.176 12.465 11.036 22.941 22.134 29.502v-.001c2.932 1.733 5.976 3.115 9.083 4.167 1.168 11.808 3.187 24.255 6.007 37.174-10.529 3.075-20.545 6.476-29.938 10.198-51.468 20.396-79.586 48.809-79.174 80.004.412 31.193 29.269 58.859 81.256 77.902 6.825 2.5 13.97 4.825 21.387 6.977-8.763 35.785-10.653 67.45-4.6 91.208 4.689 18.409 13.84 31.746 27.198 39.643 8.325 4.921 17.784 7.354 28.166 7.354 23.155 0 50.898-12.104 80.881-35.7 5.716-4.499 11.449-9.365 17.176-14.551 5.458 5.465 10.937 10.61 16.419 15.388 30.107 26.24 58.393 39.775 82.208 39.775 9.132 0 17.609-1.991 25.276-6.02 8.085-4.249 15.039-10.814 20.483-19.251 15.947-.476 31.338-8.784 40.076-23.426 6.581-11.027 8.46-23.95 5.292-36.387-3.175-12.465-11.036-22.942-22.134-29.504-3.806-2.25-7.801-3.902-11.878-5.011-1.164-8.046-2.691-16.357-4.564-24.878 10.548-3.079 20.582-6.485 29.99-10.213zm-12.4-129.739c109.765 41.836 54.013 86.912-25.073 110.9-5.232-17.827-11.761-36.228-19.427-54.737 10.164-21.335 18.607-42.351 25.168-62.475 6.71 1.952 13.168 4.055 19.332 6.312zm-167.686 186.183c-7.049-8.276-14.017-17.107-20.85-26.43 13.207.349 28.911.304 44.144-.337-7.662 9.492-15.449 18.441-23.294 26.767zm4.374-56.262c-15.723.206-31.203-.173-46.269-1.112-14.852-23.446-29.896-51.405-41.609-77.893 11.984-23.774 27.481-49.902 43.349-72.662 27.948-2.321 59.447-2.751 88.766-.896 14.879 23.503 29.862 51.307 41.588 77.93-11.98 23.762-27.47 49.875-43.33 72.624-13.861 1.139-28.067 1.821-42.495 2.009zm-95.873-26.927c4.008 7.556 8.138 14.975 12.369 22.245-11.499-1.508-22.629-3.37-33.308-5.569 3.613-10.887 7.789-21.982 12.487-33.199 2.724 5.516 5.537 11.028 8.452 16.523zm-6.655-88.409c-3.259-9.02-6.184-17.924-8.77-26.662 8.948-1.926 18.202-3.622 27.706-5.088-5.929 9.325-12.701 20.569-18.936 31.75zm104.869-94.602c7.05 8.277 14.019 17.109 20.853 26.434-13.51-.35-28.975-.304-44.146.333 7.661-9.492 15.447-18.441 23.293-26.767zm91.499 83.189c-4.009-7.557-8.138-14.977-12.37-22.246 11.499 1.508 22.631 3.37 33.31 5.568-3.613 10.888-7.79 21.985-12.489 33.204-2.726-5.531-5.543-11.044-8.451-16.526zm-2.634 104.498c3.177-5.324 6.253-10.657 9.233-15.99 3.233 8.979 6.148 17.86 8.731 26.583-8.918 1.917-18.141 3.608-27.611 5.069 3.27-5.144 6.488-10.367 9.647-15.662zm9.991-251.066c40.835 1.259 29.202 70.579 21.959 101.016-19.416-4.098-40.198-7.135-61.872-9.044-12.029-17.99-24.625-34.666-37.503-49.649 20.334-19.864 59.282-44.039 77.416-42.323zm-255.174 17.768c3.398-5.695 9.466-8.859 15.691-8.859 3.17 0 6.382.821 9.301 2.547 4.179 2.47 7.136 6.405 8.328 11.082 1.185 4.648.48 9.482-1.982 13.609-5.128 8.595-16.34 11.426-24.992 6.313v-.001c-4.179-2.47-7.136-6.405-8.328-11.082-1.185-4.649-.481-9.482 1.982-13.609zm30.338 54.92c10.838-3.447 20.507-10.686 26.761-21.167 6.581-11.028 8.46-23.952 5.292-36.389-1.839-7.218-5.257-13.763-9.957-19.273 16.024-3.894 41.15 7.536 68.835 31.667 4.899 4.27 9.802 8.868 14.692 13.75-14.679 15.438-29.131 32.857-42.973 51.802-20.134 2.13-39.516 5.21-57.762 9.181-2.198-10.244-3.84-20.135-4.888-29.571zm-41.706 176.873c-109.696-41.81-54.097-86.865 24.995-110.877 5.218 17.802 11.752 36.192 19.475 54.776-10.151 21.313-18.584 42.308-25.139 62.412-6.708-1.952-13.168-4.053-19.331-6.311zm48.933 140.171c-25.345-19.547-15.056-68.039-8.779-97.786 19.416 4.099 40.201 7.134 61.876 9.043 12.028 17.989 24.624 34.663 37.5 49.645-31.776 29.556-72.086 50.709-90.597 39.098zm269.656-25.977c-5.129 8.596-16.34 11.427-24.992 6.313-4.179-2.47-7.136-6.406-8.328-11.083-1.184-4.648-.48-9.481 1.982-13.608 5.129-8.596 16.34-11.425 24.992-6.313 4.179 2.471 7.137 6.407 8.328 11.084 1.184 4.648.48 9.48-1.982 13.607zm-33.044-53.968c-36.904 14.468-39.954 61.882-11.959 82.898-20.024 17.913-66.152-13.852-92.258-41.003 14.679-15.438 29.131-32.857 42.973-51.802 20.11-2.128 39.47-5.203 57.697-9.167 1.409 6.512 2.593 12.879 3.547 19.074z" fill="#1abc9c" data-original="#000000" style="" class=""/><path d="m280.497 214.58c-22.833-13.497-52.45-5.976-66.02 16.765-6.581 11.028-8.46 23.952-5.292 36.389 3.176 12.465 11.036 22.942 22.133 29.502 7.688 4.544 16.146 6.706 24.5 6.706 16.458 0 32.518-8.388 41.519-23.471 6.581-11.028 8.46-23.951 5.292-36.389-3.174-12.465-11.035-22.941-22.132-29.502zm-8.921 50.518c-5.129 8.594-16.34 11.425-24.992 6.312-4.179-2.47-7.136-6.405-8.328-11.082-1.185-4.649-.48-9.482 1.982-13.609 3.398-5.694 9.465-8.858 15.691-8.858 3.17 0 6.382.821 9.301 2.547 4.179 2.47 7.136 6.405 8.328 11.082 1.185 4.648.481 9.481-1.982 13.608z" fill="#1abc9c" data-original="#000000" style="" class=""/></g></g></svg>
