<?xml version="1.0"?>
<svg xmlns="http://www.w3.org/2000/svg" xmlns:xlink="http://www.w3.org/1999/xlink" xmlns:svgjs="http://svgjs.com/svgjs" version="1.1" width="512" height="512" x="0" y="0" viewBox="0 0 512.007 512.007" style="enable-background:new 0 0 512 512" xml:space="preserve" class=""><g><g xmlns="http://www.w3.org/2000/svg"><path d="m503.213 410-154-154 93.394-93.394c5.858-5.857 5.858-15.355 0-21.213l-2.683-2.683 68.961-89.56c4.599-5.972 4.052-14.429-1.278-19.758l-25-25c-5.329-5.329-13.785-5.876-19.758-1.278l-89.56 68.961-2.683-2.683c-5.857-5.857-15.355-5.857-21.213 0l-93.393 93.395-93.394-93.394c-5.857-5.857-15.355-5.857-21.213 0l-2.683 2.683-89.558-68.96c-5.97-4.599-14.428-4.052-19.758 1.278l-25 25c-5.33 5.329-5.877 13.786-1.278 19.758l68.961 89.56-2.683 2.683c-5.858 5.857-5.858 15.355 0 21.213l93.393 93.392-154.004 154.004c-11.686 11.686-11.689 30.712 0 42.423l50.8 50.8c11.694 11.675 30.725 11.68 42.413-.01l154.004-154.004 154 154c11.721 11.723 30.701 11.727 42.426 0l50.786-50.786c11.725-11.723 11.728-30.702.001-42.427zm-32.502-375.076 6.365 6.365-58.544 76.03-23.852-23.852zm-110.711 66.289c5.857 5.857 45.26 45.26 50.787 50.787l-82.787 82.787-50.787-50.787zm-325.076-59.924 6.365-6.365 76.03 58.544-23.851 23.852zm45.862 440.715-50.79-50.787 154.004-154.004 50.787 50.787zm350.427-.004-330-330 50.787-50.787 330 330z" fill="#1abc9c" data-original="#000000" style="" class=""/></g></g></svg>
