<?xml version="1.0"?>
<svg xmlns="http://www.w3.org/2000/svg" xmlns:xlink="http://www.w3.org/1999/xlink" xmlns:svgjs="http://svgjs.com/svgjs" version="1.1" width="512" height="512" x="0" y="0" viewBox="0 0 511.885 511.885" style="enable-background:new 0 0 512 512" xml:space="preserve"><g>
<g xmlns="http://www.w3.org/2000/svg">
	<path d="M453.436,58.449c-77.932-77.932-204.737-77.932-282.671,0c-67.043,67.042-76.408,170.253-28.1,247.405L13.103,435.416   c-17.471,17.47-17.471,45.896,0,63.366c8.735,8.735,20.209,13.103,31.683,13.103c11.475,0,22.948-4.367,31.684-13.103   l129.562-129.562c32.31,20.23,69.19,30.349,106.07,30.349c51.185,0,102.369-19.483,141.335-58.449   C531.369,263.187,531.369,136.381,453.436,58.449z M55.256,477.569c-5.773,5.775-15.167,5.773-20.94,0s-5.773-15.167,0-20.94   l126.367-126.367c3.203,3.712,6.56,7.337,10.082,10.858c3.522,3.522,7.146,6.879,10.858,10.082L55.256,477.569z M432.223,319.907   c-66.236,66.234-174.009,66.234-240.245,0c-66.235-66.236-66.235-174.01,0-240.245c33.122-33.121,76.615-49.677,120.123-49.677   c43.497,0,87.009,16.563,120.122,49.677C498.458,145.898,498.458,253.671,432.223,319.907z" fill="#1abc9c" data-original="#000000" style=""/>
	<path d="M312.101,75.366c-68.604,0-124.418,55.813-124.418,124.418s55.813,124.418,124.418,124.418s124.418-55.813,124.418-124.418   S380.706,75.366,312.101,75.366z M405.323,184.784H369.26c-1.299-25.058-5.852-49.388-13.541-68.719   C381.646,129.628,400.529,154.882,405.323,184.784z M312.101,294.202c-2.402,0-9.501-5.496-16.107-22.484   c-5.914-15.209-9.777-35.393-11.013-56.934h54.239c-1.236,21.54-5.098,41.725-11.013,56.934   C321.601,288.706,314.503,294.202,312.101,294.202z M284.981,184.784c1.236-21.54,5.098-41.724,11.013-56.934   c6.606-16.988,13.705-22.484,16.107-22.484s9.5,5.496,16.106,22.484c5.914,15.21,9.777,35.394,11.013,56.934H284.981z    M268.482,116.066c-7.689,19.332-12.242,43.661-13.541,68.719h-36.062C223.673,154.882,242.555,129.629,268.482,116.066z    M218.879,214.784h36.062c1.299,25.057,5.852,49.387,13.541,68.719C242.555,269.94,223.673,244.686,218.879,214.784z    M355.719,283.504c7.689-19.332,12.242-43.661,13.541-68.719h36.063C400.529,244.687,381.646,269.94,355.719,283.504z" fill="#1abc9c" data-original="#000000" style=""/>
</g>















</g></svg>
